<?xml version="1.0" encoding="iso-8859-1"?>
<!-- Generator: Adobe Illustrator 19.0.0, SVG Export Plug-In . SVG Version: 6.00 Build 0)  -->
<svg version="1.1" id="Layer_1" xmlns="http://www.w3.org/2000/svg" xmlns:xlink="http://www.w3.org/1999/xlink" x="0px" y="0px"
	 viewBox="0 0 330 330" style="enable-background:new 0 0 330 330;" xml:space="preserve">
<g id="XMLID_243_">
	<path id="XMLID_244_" d="M315,260c-8.284,0-15,6.716-15,15v20c0,8.284,6.716,15,15,15c8.284,0,15-6.716,15-15v-20
		C330,266.716,323.284,260,315,260z"/>
	<path id="XMLID_245_" d="M15,260c-8.284,0-15,6.716-15,15v20c0,8.284,6.716,15,15,15s15-6.716,15-15v-20
		C30,266.716,23.284,260,15,260z"/>
	<path id="XMLID_307_" d="M240,280c-8.284,0-15,6.716-15,15v20c0,8.284,6.716,15,15,15c8.284,0,15-6.716,15-15v-20
		C255,286.716,248.284,280,240,280z"/>
	<path id="XMLID_308_" d="M90,280c-8.284,0-15,6.716-15,15v20c0,8.284,6.716,15,15,15s15-6.716,15-15v-20
		C105,286.716,98.284,280,90,280z"/>
	<path id="XMLID_309_" d="M165,260c-8.284,0-15,6.716-15,15v20c0,8.284,6.716,15,15,15c8.284,0,15-6.716,15-15v-20
		C180,266.716,173.284,260,165,260z"/>
	<path id="XMLID_311_" d="M330,144.96c0-46.869-38.131-85-85-85h-1.668C229.161,24.135,194.356,0,155,0
		c-50.928,0-92.626,40.282-94.902,90.658C26.17,95.481,0,124.721,0,159.96c0,38.598,31.402,70,70,70h175
		C291.869,229.96,330,191.829,330,144.96z M30,159.96c0-22.056,17.944-40,40-40h5c8.284,0,15-6.716,15-15V95
		c0-35.841,29.159-65,65-65c29.663,0,55.546,20.029,62.943,48.706c1.708,6.625,7.683,11.254,14.524,11.254H245
		c30.327,0,55,24.673,55,55c0,30.327-24.673,55-55,55H70C47.944,199.96,30,182.016,30,159.96z"/>
</g>
<g>
</g>
<g>
</g>
<g>
</g>
<g>
</g>
<g>
</g>
<g>
</g>
<g>
</g>
<g>
</g>
<g>
</g>
<g>
</g>
<g>
</g>
<g>
</g>
<g>
</g>
<g>
</g>
<g>
</g>
</svg>
